<?xml version="1.0" encoding="UTF-8"?>
<svg version="1.1" xmlns="http://www.w3.org/2000/svg" width="500" height="500">
<path d="M0 0 C3.1497827 1.96191252 6.37312683 3.64663082 9.71875 5.2578125 C14.01922236 7.33887218 18.04799464 9.65350183 22.09375 12.1953125 C26.10010888 14.71115398 30.08530789 17.01090197 34.34375 19.0703125 C40.21501361 21.91651446 45.77752501 25.18403414 51.37915039 28.51855469 C56.15010171 31.35617583 60.96477419 34.07595372 65.85546875 36.703125 C70.22687938 39.08526318 74.53183893 41.5826715 78.84375 44.0703125 C81.76857571 45.74309047 84.72197214 47.3581701 87.68359375 48.96484375 C94.22186193 52.52113528 100.69406983 56.19049976 107.15625 59.8828125 C107.76437531 60.22992279 108.37250061 60.57703308 108.99905396 60.93466187 C118.75682789 66.50959623 128.42008827 72.22251877 137.94873047 78.18212891 C139.44890422 79.10610057 140.97529785 79.98715268 142.50390625 80.86328125 C144.59375 82.1953125 144.59375 82.1953125 145.59375 84.1953125 C144.85439209 84.60257568 144.11503418 85.00983887 143.35327148 85.42944336 C125.69987821 95.12047159 125.69987821 95.12047159 108.34277344 105.32714844 C104.11859953 107.90322637 99.82467778 110.30462196 95.44921875 112.61328125 C91.09558052 115.02535168 86.85132109 117.61837522 82.59375 120.1953125 C83.26317627 120.61304932 83.93260254 121.03078613 84.62231445 121.46118164 C87.71726934 123.39289623 90.81176151 125.32535088 93.90625 127.2578125 C94.95876953 127.91458984 96.01128906 128.57136719 97.09570312 129.24804688 C102.17190041 132.41871779 107.23999049 135.60045548 112.28515625 138.8203125 C117.23236753 141.97542401 122.21994627 145.06036253 127.21875 148.1328125 C145.18176342 159.21491204 162.89171456 170.70238165 180.59375 182.1953125 C178.5444644 184.39591666 176.60408347 185.89992058 173.9609375 187.32421875 C173.24655518 187.71391846 172.53217285 188.10361816 171.79614258 188.50512695 C171.02810303 188.91851318 170.26006348 189.33189941 169.46875 189.7578125 C163.38855906 193.08064385 157.36101433 196.46501314 151.40625 200.0078125 C140.90217572 206.24543742 130.24383083 212.21161337 119.59375 218.1953125 C119.59375 218.8553125 119.59375 219.5153125 119.59375 220.1953125 C122.16714288 221.91090776 124.74298021 223.50453499 127.40625 225.0703125 C129.07498859 226.07033107 130.74293335 227.07167528 132.41015625 228.07421875 C133.2727002 228.59129395 134.13524414 229.10836914 135.02392578 229.64111328 C138.99728633 232.04415463 142.9224431 234.52100849 146.84375 237.0078125 C147.61775146 237.49781738 148.39175293 237.98782227 149.18920898 238.49267578 C153.53944822 241.24985094 157.88360032 244.01653638 162.2265625 246.78515625 C164.14058533 248.00527057 166.05464778 249.22532273 167.96875 250.4453125 C169.37846069 251.34382935 169.37846069 251.34382935 170.81665039 252.26049805 C176.59120692 255.93586652 182.39367943 259.55568604 188.234375 263.125 C192.68578669 265.86831186 197.10957052 268.65439783 201.53125 271.4453125 C202.33715576 271.95336426 203.14306152 272.46141602 203.97338867 272.98486328 C205.49330125 273.94559422 207.0112352 274.90946495 208.52685547 275.87695312 C209.84375864 276.71693389 211.16526466 277.5497721 212.49267578 278.37304688 C213.89439498 279.26128124 215.25057435 280.22080946 216.59375 281.1953125 C216.59375 281.8553125 216.59375 282.5153125 216.59375 283.1953125 C215.1159668 284.33691406 215.1159668 284.33691406 213.04296875 285.5859375 C212.28048828 286.04871094 211.51800781 286.51148438 210.73242188 286.98828125 C209.5190918 287.70951172 209.5190918 287.70951172 208.28125 288.4453125 C207.51490234 288.91066406 206.74855469 289.37601562 205.95898438 289.85546875 C199.93457761 293.48511133 193.7827305 296.85639739 187.59375 300.1953125 C185.88881717 301.1240722 184.1843814 302.053745 182.48046875 302.984375 C181.63645508 303.44473145 180.79244141 303.90508789 179.92285156 304.37939453 C178.09272416 305.37767659 176.26264962 306.37605556 174.43261719 307.37451172 C169.59295972 310.01483699 164.75252565 312.65371381 159.91015625 315.2890625 C151.30610261 319.9735752 142.71203725 324.67312347 134.15625 329.4453125 C124.77464286 334.67386613 115.31177822 339.73655243 105.7890625 344.703125 C94.66825033 350.50785113 94.66825033 350.50785113 83.83984375 356.8359375 C79.51646933 359.45251889 75.04135931 361.79851031 70.59375 364.1953125 C68.88513326 365.13229588 67.17680415 366.06980394 65.46875 367.0078125 C62.15114495 368.82130967 58.8205383 370.6065021 55.47265625 372.36328125 C48.58152939 375.9800528 41.76852923 379.61898478 35.1328125 383.69140625 C32.08560851 385.49628861 28.97372233 387.1651788 25.84375 388.8203125 C19.30088535 392.28025935 12.78347005 395.78449765 6.28125 399.3203125 C4.9214502 400.05628662 4.9214502 400.05628662 3.53417969 400.80712891 C-2.54369239 404.11638955 -8.4934919 407.60037641 -14.40625 411.1953125 C-16.33394541 412.35756491 -18.26924051 413.50753341 -20.21875 414.6328125 C-21.09144531 415.14714844 -21.96414062 415.66148437 -22.86328125 416.19140625 C-25.97619241 417.42031281 -27.22041012 417.10974458 -30.40625 416.1953125 C-32.64038086 414.85644531 -32.64038086 414.85644531 -34.93359375 413.1484375 C-40.81835671 408.87771254 -46.87521601 404.91060999 -52.96875 400.9453125 C-54.13452479 400.18478148 -55.30021378 399.42411893 -56.46582031 398.66333008 C-61.89012175 395.1249106 -67.32261996 391.59959423 -72.76977539 388.09643555 C-85.16616807 380.12148175 -97.39616671 371.89398438 -109.65136719 363.70458984 C-110.26266479 363.29609802 -110.8739624 362.8876062 -111.50378418 362.46673584 C-112.81187851 361.59253266 -114.11989846 360.71821819 -115.42785645 359.84381104 C-117.44890667 358.49294025 -119.47049628 357.14287998 -121.4921875 355.79296875 C-122.10401886 355.38376694 -122.71585022 354.97456512 -123.34622192 354.55296326 C-126.83873071 352.22203694 -130.35530314 349.93614024 -133.90625 347.6953125 C-141.74727627 342.74493323 -149.434564 337.55514065 -157.1171875 332.36328125 C-160.86985049 329.83375586 -164.63264355 327.45608266 -168.58984375 325.26171875 C-170.78163088 323.9749276 -172.86663048 322.56113077 -174.96875 321.1328125 C-178.35375786 318.84329519 -181.69858143 316.90654415 -185.40625 315.1953125 C-185.40625 314.5353125 -185.40625 313.8753125 -185.40625 313.1953125 C-186.06753906 312.97101563 -186.72882813 312.74671875 -187.41015625 312.515625 C-191.35417189 310.77758421 -194.76599398 308.4577704 -198.34375 306.0703125 C-204.78771279 301.82789788 -211.30552713 297.86588388 -218.0625 294.14453125 C-221.4719262 292.15702696 -224.72657176 290.01774061 -227.99707031 287.81225586 C-230.45378192 286.16341101 -232.92958191 284.54806582 -235.4140625 282.94140625 C-236.67669922 282.12446289 -236.67669922 282.12446289 -237.96484375 281.29101562 C-239.68307359 280.18083516 -241.40182836 279.07146673 -243.12109375 277.96289062 C-247.97382497 274.82091488 -252.7315207 271.59684317 -257.40625 268.1953125 C-254.42433224 265.86351835 -251.34842818 263.92629088 -248.06640625 262.04296875 C-246.48702271 261.13430054 -246.48702271 261.13430054 -244.87573242 260.20727539 C-243.75142822 259.56395264 -242.62712402 258.92062988 -241.46875 258.2578125 C-240.29845064 257.58543712 -239.12828605 256.91282711 -237.95825195 256.23999023 C-232.47170635 253.08718827 -226.97717454 249.94851601 -221.4765625 246.8203125 C-219.68221984 245.79960543 -217.8879462 244.77877701 -216.09375 243.7578125 C-215.23483154 243.26917725 -214.37591309 242.78054199 -213.4909668 242.27709961 C-207.66401935 238.94895823 -201.94574846 235.48433476 -196.25390625 231.9296875 C-192.5800516 229.69211348 -188.81349883 227.65735173 -185.0234375 225.625 C-180.73635534 223.28310139 -176.57871455 220.73394148 -172.40625 218.1953125 C-170.53193092 217.0691784 -168.65694796 215.94414841 -166.78125 214.8203125 C-165.94335938 214.31757813 -165.10546875 213.81484375 -164.2421875 213.296875 C-163.63632813 212.93335938 -163.03046875 212.56984375 -162.40625 212.1953125 C-163.36660156 211.57527344 -164.32695312 210.95523438 -165.31640625 210.31640625 C-166.70059458 209.42198912 -168.08470167 208.52744626 -169.46875 207.6328125 C-170.21954834 207.14756104 -170.97034668 206.66230957 -171.74389648 206.16235352 C-176.20131139 203.27840923 -180.65153248 200.38386746 -185.09375 197.4765625 C-186.54273682 196.52861816 -186.54273682 196.52861816 -188.02099609 195.56152344 C-189.9852537 194.27631265 -191.94912143 192.99050579 -193.91259766 191.70410156 C-198.3882804 188.78043979 -202.87445451 185.8843866 -207.4296875 183.0859375 C-208.1817749 182.62388916 -208.9338623 182.16184082 -209.70874023 181.68579102 C-211.09735317 180.83833221 -212.48991832 179.99730427 -213.88696289 179.16381836 C-215.42636735 178.22644092 -216.92236416 177.21831072 -218.40625 176.1953125 C-218.40625 175.5353125 -218.40625 174.8753125 -218.40625 174.1953125 C-217.46007812 173.67324219 -216.51390625 173.15117187 -215.5390625 172.61328125 C-203.50108204 165.92979697 -191.74475542 158.82612623 -180.09765625 151.484375 C-173.67411073 147.43543524 -167.27061061 143.50761566 -160.5625 139.94140625 C-153.55610853 136.06534562 -146.74873031 131.83663501 -139.89794922 127.69384766 C-137.54497519 126.27874334 -135.1833333 124.87989163 -132.81640625 123.48828125 C-132.12063477 123.07747314 -131.42486328 122.66666504 -130.70800781 122.2434082 C-129.41151858 121.47884871 -128.11278694 120.71807514 -126.81152344 119.96166992 C-123.54818102 118.14203613 -123.54818102 118.14203613 -121.40625 115.1953125 C-122.05851563 114.96972656 -122.71078125 114.74414062 -123.3828125 114.51171875 C-127.42599335 112.75131572 -131.04462378 110.46304499 -134.78125 108.1328125 C-136.40332073 107.13098385 -138.02572127 106.12968901 -139.6484375 105.12890625 C-140.4537793 104.63116699 -141.25912109 104.13342773 -142.08886719 103.62060547 C-145.3450099 101.61793362 -148.62369962 99.65428273 -151.90625 97.6953125 C-153.72996336 96.6021831 -155.55304208 95.50800195 -157.37597656 94.41357422 C-158.84610304 93.53142762 -160.31689142 92.65038378 -161.78808594 91.77001953 C-164.28897004 90.27113886 -166.78545752 88.76515278 -169.28125 87.2578125 C-170.46944336 86.54818359 -170.46944336 86.54818359 -171.68164062 85.82421875 C-172.41318359 85.38078125 -173.14472656 84.93734375 -173.8984375 84.48046875 C-174.87852783 83.89084351 -174.87852783 83.89084351 -175.87841797 83.28930664 C-177.40625 82.1953125 -177.40625 82.1953125 -178.40625 80.1953125 C-177.83181152 79.85274414 -177.25737305 79.51017578 -176.66552734 79.15722656 C-174.03648635 77.58817167 -171.40886016 76.01676225 -168.78125 74.4453125 C-167.87761719 73.90648438 -166.97398437 73.36765625 -166.04296875 72.8125 C-160.49362859 69.4973299 -160.49362859 69.4973299 -155.07421875 65.9765625 C-152.55583684 64.29518307 -150.02245571 62.85297856 -147.34375 61.4453125 C-143.31685322 59.27822749 -139.4087105 56.99435395 -135.53125 54.5703125 C-129.66406299 50.92352201 -123.7122896 47.44278672 -117.71875 44.0078125 C-116.8520166 43.50878418 -115.9852832 43.00975586 -115.09228516 42.49560547 C-110.00436911 39.59194945 -104.8618818 36.86260706 -99.60351562 34.2800293 C-93.40905826 31.23454211 -93.40905826 31.23454211 -88.1328125 26.83203125 C-85.19897908 23.99487143 -82.11018424 22.01256929 -78.59375 20.0078125 C-77.25830324 19.2266458 -75.92369617 18.44404221 -74.58984375 17.66015625 C-73.55899658 17.0566333 -73.55899658 17.0566333 -72.50732422 16.44091797 C-67.01178139 13.18292825 -61.62523142 9.74292147 -56.22070312 6.33691406 C-54.56145567 5.29296343 -52.8981203 4.25551739 -51.234375 3.21875 C-47.11528364 0.63578387 -43.14666548 -1.96043977 -39.34375 -4.9921875 C-24.80061049 -15.80405687 -13.69544354 -8.59105356 0 0 Z " fill="#000000" transform="translate(269.40625,46.8046875)"/>
</svg>
